<?xml version="1.0" standalone="no"?>
<!DOCTYPE svg PUBLIC "-//W3C//DTD SVG 20010904//EN"
 "http://www.w3.org/TR/2001/REC-SVG-20010904/DTD/svg10.dtd">
<svg version="1.0" xmlns="http://www.w3.org/2000/svg"
 width="2460.000000pt" height="2460.000000pt" viewBox="0 0 2460.000000 2460.000000"
 preserveAspectRatio="xMidYMid meet">

<g transform="translate(0.000000,2460.000000) scale(0.100000,-0.100000)"
fill="#000000" stroke="none">
<path d="M11860 23789 c-2529 -102 -4970 -1041 -6910 -2659 -504 -420 -1060
-976 -1480 -1480 -1043 -1250 -1825 -2747 -2253 -4310 -553 -2018 -553 -4102
0 -6120 428 -1563 1210 -3060 2253 -4310 420 -504 976 -1060 1480 -1480 1250
-1043 2747 -1825 4310 -2253 2018 -553 4102 -553 6120 0 1563 428 3060 1210
4310 2253 504 420 1060 976 1480 1480 1043 1250 1825 2747 2253 4310 553 2018
553 4102 0 6120 -428 1563 -1210 3060 -2253 4310 -420 504 -976 1060 -1480
1480 -2183 1820 -4990 2774 -7830 2659z m980 -680 c2467 -130 4810 -1099 6675
-2758 168 -149 677 -658 826 -826 1282 -1441 2149 -3155 2544 -5030 214 -1018
278 -2072 190 -3105 -201 -2333 -1158 -4544 -2734 -6315 -149 -168 -658 -677
-826 -826 -1441 -1282 -3155 -2149 -5030 -2544 -1018 -214 -2072 -278 -3105
-190 -2333 201 -4544 1158 -6315 2734 -168 149 -677 658 -826 826 -1387 1559
-2293 3449 -2628 5485 -100 608 -143 1128 -143 1740 0 612 43 1132 143 1740
335 2036 1241 3926 2628 5485 149 168 658 677 826 826 1441 1282 3155 2149
5030 2544 624 131 1322 212 1975 229 167 4 556 -3 770 -15z"/>
<path d="M8962 21741 c-7 -4 -19 -32 -27 -62 -7 -30 -22 -83 -33 -119 -11 -36
-36 -121 -57 -190 -20 -68 -41 -132 -46 -142 -9 -17 -30 -18 -279 -18 -148 0
-271 -3 -273 -7 -3 -5 92 -85 211 -178 210 -165 217 -172 216 -205 -1 -19 -6
-48 -12 -65 -5 -16 -20 -61 -31 -100 -37 -124 -63 -209 -82 -268 -36 -108 -23
-121 56 -56 28 23 84 68 125 100 41 32 110 85 153 118 42 34 84 61 92 61 8 0
109 -74 224 -165 115 -91 214 -165 221 -165 8 0 9 6 5 18 -5 9 -14 42 -22 72
-9 30 -19 60 -23 65 -4 6 -11 26 -15 45 -3 19 -12 53 -20 75 -7 22 -23 74 -35
115 -12 41 -29 96 -38 122 l-16 48 44 37 c43 37 77 64 238 188 42 33 88 70
102 82 14 13 33 26 43 29 9 3 17 12 17 20 0 11 -45 14 -272 16 l-273 3 -18 38
c-10 21 -22 57 -26 80 -5 23 -14 56 -20 72 -6 17 -22 71 -36 120 -15 50 -31
98 -36 107 -5 10 -9 23 -9 30 0 23 -21 88 -28 88 -4 0 -13 -4 -20 -9z"/>
<path d="M12938 21698 l-15 -23 -482 -3 -481 -3 -1 -22 c0 -12 -10 -221 -22
-465 -12 -243 -18 -442 -14 -442 5 0 55 10 110 22 126 27 436 32 527 9 187
-47 292 -173 277 -333 -14 -160 -158 -268 -341 -256 -128 9 -206 67 -281 209
-47 89 -80 128 -130 150 -77 35 -162 15 -222 -54 -61 -70 -54 -188 19 -298 48
-71 114 -124 218 -173 132 -62 213 -79 390 -79 185 0 264 17 408 89 214 107
322 279 322 509 0 156 -49 275 -152 370 -142 131 -375 195 -658 181 -69 -3
-142 -9 -162 -12 l-38 -7 0 49 c0 27 3 79 7 117 l6 67 443 0 444 0 0 210 0
210 -79 0 c-70 0 -80 -2 -93 -22z"/>
<path d="M16172 21641 c-7 -4 -19 -32 -27 -62 -7 -30 -22 -83 -33 -119 -11
-36 -36 -121 -57 -190 -20 -68 -41 -132 -46 -142 -9 -17 -30 -18 -279 -18
-148 0 -271 -3 -273 -7 -3 -5 92 -85 211 -178 210 -165 217 -172 216 -205 -1
-19 -6 -48 -12 -65 -5 -16 -20 -61 -31 -100 -37 -124 -63 -209 -82 -268 -36
-108 -23 -121 56 -56 28 23 84 68 125 100 41 32 110 85 153 118 42 34 84 61
92 61 8 0 109 -74 224 -165 115 -91 214 -165 221 -165 8 0 9 6 5 18 -5 9 -14
42 -22 72 -9 30 -19 60 -23 65 -4 6 -11 26 -15 45 -3 19 -12 53 -20 75 -7 22
-23 74 -35 115 -12 41 -29 96 -38 122 l-16 48 44 37 c43 37 77 64 238 188 42
33 88 70 102 82 14 13 33 26 43 29 9 3 17 12 17 20 0 11 -45 14 -272 16 l-273
3 -18 38 c-10 21 -22 57 -26 80 -5 23 -14 56 -20 72 -6 17 -22 71 -36 120 -15
50 -31 98 -36 107 -5 10 -9 23 -9 30 0 23 -21 88 -28 88 -4 0 -13 -4 -20 -9z"/>
<path d="M5586 19425 c-347 -419 -360 -433 -385 -424 -23 9 -30 6 -68 -38 -23
-26 -45 -56 -48 -65 -5 -13 50 -98 180 -282 l187 -265 94 71 c56 42 91 75 87
82 -3 6 -26 39 -50 72 -62 89 -77 128 -63 170 13 40 34 67 264 343 l170 205
21 -140 c56 -359 190 -713 349 -924 79 -105 236 -282 246 -278 4 2 69 77 145
167 l136 164 -89 91 c-199 202 -301 341 -412 561 -72 142 -119 261 -156 400
-26 99 -54 272 -54 335 0 37 -5 43 -87 114 -49 42 -92 75 -98 75 -5 0 -172
-195 -369 -434z"/>
<path d="M18785 19607 c-121 -31 -222 -117 -278 -235 -27 -57 -32 -80 -35
-162 -2 -61 2 -114 11 -147 8 -29 11 -53 7 -53 -4 0 -33 11 -63 25 -31 13 -94
32 -141 42 -187 38 -336 -30 -409 -186 -76 -162 -34 -383 115 -604 53 -80 216
-242 293 -292 130 -85 282 -125 407 -107 142 21 283 119 343 239 26 52 30 70
33 173 2 90 -1 131 -16 190 -11 41 -19 76 -18 77 2 2 40 -7 86 -18 155 -39
281 -15 375 72 116 107 140 245 76 432 -62 180 -220 369 -394 475 -122 74
-284 106 -392 79z m291 -338 c53 -25 144 -122 175 -185 26 -55 30 -124 10
-172 -27 -65 -147 -108 -261 -94 l-53 7 -39 115 c-50 148 -60 243 -30 292 12
19 32 40 44 46 37 18 108 14 154 -9z m-574 -496 c32 -8 62 -21 67 -27 5 -6 30
-74 57 -151 37 -108 49 -158 52 -221 4 -79 4 -81 -28 -117 -82 -93 -210 -66
-349 74 -68 69 -126 172 -137 245 -14 97 47 195 133 209 21 4 43 8 48 10 16 6
95 -5 157 -22z"/>
<path d="M15020 19280 l0 -170 -160 0 -160 0 0 -190 0 -190 160 0 160 0 0
-170 0 -170 190 0 190 0 0 170 0 170 175 0 175 0 0 190 0 190 -175 0 -175 0 0
170 0 170 -190 0 -190 0 0 -170z"/>
<path d="M9242 19187 l-132 -132 115 -115 c63 -63 115 -119 115 -125 0 -5 -51
-60 -112 -122 l-113 -113 133 -132 132 -133 113 113 c62 61 117 112 122 112 6
0 62 -52 125 -115 l115 -115 132 132 133 133 -115 115 c-63 63 -115 120 -115
127 0 6 54 62 120 125 l121 113 -136 135 -135 135 -118 -118 c-64 -64 -122
-117 -127 -117 -5 0 -62 52 -125 115 l-115 115 -133 -133z"/>
<path d="M11980 18355 c0 -12 -15 -15 -72 -15 -67 -1 -229 -15 -431 -39 -82
-10 -168 -28 -202 -42 -20 -8 -81 -22 -160 -38 -22 -5 -47 -11 -55 -14 -8 -2
-55 -17 -105 -32 -49 -16 -103 -34 -120 -41 -60 -24 -81 -32 -115 -44 -19 -7
-48 -18 -65 -25 -16 -7 -41 -17 -55 -23 -14 -5 -106 -49 -205 -97 -157 -77
-208 -104 -301 -162 -10 -7 -44 -27 -74 -44 -64 -38 -258 -172 -347 -241 -35
-26 -66 -48 -70 -48 -5 0 -26 -16 -48 -36 -22 -20 -56 -48 -75 -62 -19 -15
-37 -29 -40 -32 -3 -3 -34 -30 -70 -60 -36 -30 -105 -93 -153 -140 -48 -47
-92 -86 -97 -88 -10 -4 -314 -323 -415 -437 -82 -91 -267 -334 -378 -496 -69
-100 -109 -164 -203 -324 -30 -51 -144 -286 -179 -370 -7 -16 -18 -41 -23 -55
-6 -14 -18 -45 -26 -70 -26 -80 -66 -194 -75 -215 -5 -11 -14 -40 -21 -65 -20
-71 -28 -101 -44 -155 -7 -27 -19 -77 -26 -110 -7 -33 -17 -73 -22 -90 -15
-45 -28 -103 -38 -175 -5 -36 -16 -108 -25 -160 -29 -172 -40 -351 -39 -640 0
-326 19 -547 64 -755 6 -27 15 -68 19 -90 4 -22 12 -49 18 -60 6 -11 17 -40
23 -65 7 -25 23 -74 35 -110 13 -36 29 -83 36 -105 7 -22 19 -47 26 -56 7 -8
13 -21 13 -28 0 -6 11 -34 25 -61 14 -27 25 -54 25 -60 0 -11 35 -93 50 -120
10 -17 28 -54 89 -180 22 -47 49 -101 60 -120 11 -19 38 -73 60 -120 22 -47
49 -101 60 -120 10 -19 26 -51 35 -70 18 -38 38 -73 77 -135 14 -22 35 -61 47
-87 12 -26 40 -78 63 -115 23 -37 55 -93 72 -123 16 -30 37 -66 46 -80 8 -14
21 -34 27 -45 33 -60 59 -103 92 -156 20 -31 51 -81 67 -110 34 -60 40 -68 79
-126 l29 -43 -792 -795 -791 -796 0 -382 1 -382 742 748 c408 411 745 748 750
747 4 0 7 -137 7 -305 l0 -305 -218 0 -217 0 -290 -290 -290 -290 508 0 507 0
0 -155 0 -155 320 0 320 0 0 1180 0 1180 -259 0 -258 0 -43 88 c-68 138 -105
207 -125 232 -6 8 -22 40 -34 71 -12 31 -39 85 -59 120 -21 35 -50 95 -66 132
-16 38 -39 84 -52 103 -13 19 -24 39 -24 43 0 5 -9 26 -19 48 -83 169 -141
290 -141 297 0 9 -47 114 -61 136 -5 8 -12 22 -15 30 -21 54 -50 120 -75 174
-11 22 -19 45 -19 50 0 6 -11 34 -25 61 -13 28 -25 57 -25 66 0 8 -4 19 -9 25
-5 5 -16 36 -26 69 -10 33 -22 64 -27 70 -4 5 -8 18 -8 30 0 12 -5 26 -11 32
-6 6 -15 29 -19 50 -5 21 -15 63 -23 93 -8 30 -22 100 -31 155 -9 55 -21 122
-26 148 -6 27 -10 70 -10 95 0 26 -7 90 -15 142 -19 121 -19 296 0 491 41 435
37 405 59 544 33 219 47 302 60 345 8 25 19 72 26 105 7 33 22 94 33 135 10
41 21 89 24 105 2 17 9 41 15 55 17 40 35 83 46 110 48 122 68 169 84 195 9
17 31 57 47 90 29 59 89 152 202 311 30 44 77 120 104 169 62 117 186 302 282
424 101 127 371 395 508 505 421 335 917 583 1489 745 182 52 446 110 596 131
30 5 105 16 165 26 141 23 755 26 965 6 937 -92 1746 -400 2385 -908 209 -167
475 -448 626 -664 243 -346 406 -762 453 -1160 29 -240 36 -379 25 -510 -19
-237 -39 -434 -58 -580 -6 -41 -15 -111 -20 -155 -6 -44 -15 -100 -20 -125
-51 -233 -49 -552 3 -618 5 -8 11 -23 13 -34 2 -11 17 -50 35 -86 23 -50 54
-89 117 -152 86 -85 147 -125 231 -149 25 -8 63 -19 85 -26 59 -19 172 -38
184 -31 5 4 29 9 53 12 94 11 212 72 286 148 57 59 132 180 132 215 0 9 6 25
13 36 38 58 87 410 87 628 0 97 3 117 15 117 13 0 15 24 15 160 0 129 -3 160
-14 160 -11 0 -15 33 -20 158 -3 86 -10 198 -15 247 -8 83 -14 122 -41 258 -6
27 -10 59 -10 72 0 12 -7 36 -15 51 -8 16 -15 39 -15 51 0 21 -7 58 -31 153
-55 230 -70 285 -79 294 -5 5 -10 19 -10 30 0 22 -65 239 -81 268 -5 10 -9 26
-9 37 0 10 -7 24 -15 31 -8 7 -15 19 -15 26 0 8 -4 22 -9 32 -5 9 -19 42 -31
72 -22 56 -122 262 -140 290 -5 8 -40 65 -77 126 -118 192 -247 356 -458 579
-67 72 -138 146 -156 166 -37 39 -275 259 -379 349 -169 146 -435 347 -550
417 -25 15 -67 43 -95 63 -27 20 -75 49 -105 64 -64 32 -84 43 -125 72 -16 11
-59 35 -95 51 -138 65 -155 74 -170 82 -32 19 -131 61 -145 61 -7 0 -17 5 -20
10 -3 6 -17 10 -30 10 -13 0 -26 4 -29 9 -3 5 -16 11 -28 14 -13 3 -61 20
-108 37 -80 31 -114 41 -185 55 -16 4 -39 10 -50 14 -20 8 -113 37 -170 52
-64 17 -171 39 -192 39 -12 0 -32 4 -45 9 -13 5 -66 16 -118 25 -52 9 -115 21
-140 26 -189 38 -454 65 -747 76 -136 5 -173 10 -173 20 0 11 -33 14 -170 14
-144 0 -170 -2 -170 -15z"/>
<path d="M12385 17418 c-15 -56 -48 -167 -61 -203 -7 -22 -16 -57 -20 -78 -3
-20 -10 -39 -14 -42 -5 -3 -11 -24 -15 -48 -4 -23 -14 -54 -21 -69 l-15 -28
-242 0 c-133 0 -248 -4 -255 -9 -10 -6 -3 -15 25 -36 21 -16 40 -32 43 -35 3
-4 23 -20 45 -36 114 -83 285 -226 285 -239 0 -8 -6 -32 -14 -52 -7 -21 -23
-72 -35 -113 -12 -41 -26 -88 -32 -105 -38 -110 -65 -222 -56 -231 3 -4 37 18
74 47 37 30 73 57 78 61 6 4 28 22 50 41 80 68 189 147 202 147 15 0 54 -28
258 -189 137 -108 175 -130 160 -93 -4 9 -14 40 -22 67 -8 28 -21 70 -29 95
-18 59 -52 174 -68 230 -7 25 -19 56 -25 69 -11 20 -9 27 16 53 15 17 55 51
89 77 189 143 292 227 290 236 -2 6 -97 11 -254 13 l-251 2 -36 118 c-19 64
-48 158 -64 207 -16 50 -32 107 -36 128 -8 43 -39 52 -50 15z"/>
<path d="M4365 16979 c-4 -6 -13 -34 -20 -62 -7 -29 -23 -83 -34 -122 -43
-139 -49 -161 -65 -218 -29 -106 -2 -97 -291 -97 -139 0 -256 -4 -259 -8 -2
-4 75 -69 172 -145 173 -133 242 -192 242 -204 0 -4 -9 -36 -21 -72 -22 -73
-36 -118 -69 -231 -12 -41 -28 -91 -35 -110 -19 -54 -27 -110 -16 -110 6 0 25
13 43 28 94 81 360 282 374 282 14 0 129 -87 289 -219 83 -69 124 -96 131 -88
3 3 1 20 -5 39 -6 18 -20 65 -31 103 -12 39 -26 84 -31 100 -6 17 -14 46 -18
65 -4 19 -12 44 -18 55 -6 11 -14 38 -18 60 -3 21 -13 52 -21 68 -13 23 -13
31 -2 44 14 18 348 281 384 303 58 36 34 40 -230 40 -193 0 -256 3 -264 13 -6
7 -20 46 -32 87 -12 41 -30 102 -40 135 -10 33 -23 78 -30 100 -6 22 -17 58
-25 80 -7 22 -16 52 -19 68 -6 27 -29 36 -41 16z"/>
<path d="M20115 16839 c-4 -6 -13 -34 -20 -62 -8 -29 -23 -83 -35 -122 -12
-38 -26 -90 -32 -115 -6 -25 -14 -49 -18 -55 -4 -5 -11 -26 -14 -45 -13 -65
-37 -108 -64 -115 -15 -4 -133 -5 -264 -4 -131 2 -240 0 -243 -3 -3 -3 38 -40
92 -82 54 -42 127 -99 163 -127 36 -28 89 -71 118 -96 57 -49 59 -56 34 -128
-6 -16 -21 -64 -33 -105 -36 -122 -60 -203 -74 -240 -22 -61 -28 -110 -13
-110 7 0 102 70 211 155 108 85 204 155 212 155 8 0 87 -57 175 -127 210 -167
250 -197 256 -191 4 5 -18 92 -51 198 -31 100 -57 188 -69 236 -7 28 -19 61
-25 73 -21 39 -38 23 313 294 55 43 101 83 101 90 0 8 -73 10 -256 8 -203 -2
-257 0 -265 11 -16 20 -39 85 -64 173 -13 44 -28 98 -35 120 -29 91 -53 172
-59 198 -6 27 -29 36 -41 16z"/>
<path d="M17720 16080 l0 -140 195 0 195 0 0 140 0 140 -195 0 -195 0 0 -140z"/>
<path d="M14688 16061 c-111 -36 -217 -135 -264 -246 l-14 -35 89 -44 88 -45
18 40 c49 108 186 164 307 124 67 -22 149 -76 184 -122 68 -89 63 -189 -13
-273 -52 -58 -120 -93 -235 -120 -99 -23 -419 -65 -608 -80 -74 -6 -140 -12
-145 -14 -6 -2 -32 -38 -57 -79 l-47 -75 385 -234 c362 -220 384 -234 379
-258 -5 -22 2 -30 47 -58 l53 -33 25 29 c14 16 89 102 167 190 l142 160 -73
46 c-41 25 -77 46 -81 46 -5 0 -30 -20 -56 -45 -72 -67 -83 -65 -286 58 -94
56 -169 104 -166 107 2 3 113 8 246 11 269 8 362 22 466 70 126 58 208 152
238 275 14 55 15 78 6 131 -37 213 -228 405 -473 472 -96 27 -241 28 -322 2z"/>
<path d="M9785 15950 c-84 -15 -166 -50 -252 -106 -104 -69 -173 -146 -226
-253 -40 -81 -42 -89 -42 -175 0 -82 3 -97 32 -156 17 -36 40 -76 51 -89 l20
-25 77 58 c55 41 75 63 72 74 -3 10 -13 37 -22 62 -39 107 34 230 180 302 105
52 215 12 246 -90 23 -79 -15 -147 -133 -238 -32 -25 -58 -49 -58 -53 0 -7 78
-112 100 -135 5 -4 37 12 73 38 89 64 142 86 206 86 66 0 125 -31 164 -87 54
-78 60 -130 23 -208 -43 -93 -118 -145 -218 -153 -54 -4 -61 -2 -142 48 -103
63 -143 70 -206 38 -66 -34 -93 -79 -88 -150 5 -72 38 -117 112 -153 86 -42
165 -51 270 -32 259 47 512 266 571 492 51 196 -42 390 -211 441 -83 25 -159
16 -267 -31 -17 -7 -16 -2 6 41 53 104 56 219 8 311 -54 107 -203 168 -346
143z"/>
<path d="M12313 15940 c-223 -41 -389 -199 -448 -430 -35 -135 -35 -400 0
-535 52 -203 191 -354 375 -409 139 -42 344 -26 469 35 129 63 246 213 285
367 38 144 38 410 1 553 -50 192 -190 346 -364 400 -76 23 -238 33 -318 19z
m204 -221 c85 -41 134 -132 159 -294 23 -151 15 -349 -21 -470 -46 -161 -186
-245 -310 -185 -59 29 -110 95 -135 178 -47 151 -47 444 0 596 50 160 182 236
307 175z"/>
<path d="M5800 15690 l0 -190 525 0 525 0 0 190 0 190 -525 0 -525 0 0 -190z"/>
<path d="M17400 15695 l0 -155 525 0 525 0 0 155 0 155 -525 0 -525 0 0 -155z"/>
<path d="M17720 15305 l0 -145 195 0 195 0 0 145 0 145 -195 0 -195 0 0 -145z"/>
<path d="M3930 14510 c-267 -38 -540 -204 -638 -387 -104 -196 -107 -374 -11
-573 115 -239 369 -350 641 -281 166 43 291 124 387 251 l59 78 6 -30 c10 -53
7 -142 -9 -201 -50 -192 -192 -339 -468 -487 -53 -28 -97 -55 -97 -59 0 -9 85
-199 92 -207 10 -9 295 142 397 210 334 222 513 574 462 906 -27 173 -114 385
-212 513 -148 195 -385 299 -609 267z m75 -311 c68 -25 134 -89 171 -167 39
-81 46 -211 15 -275 -46 -95 -149 -164 -259 -174 -148 -13 -283 108 -321 286
-24 114 24 232 122 297 85 56 179 68 272 33z"/>
<path d="M20290 14331 c-180 -38 -326 -115 -446 -235 -172 -172 -288 -458
-288 -706 0 -122 18 -199 71 -309 108 -226 431 -401 736 -401 158 0 282 43
399 136 152 120 247 379 209 567 -52 250 -313 451 -601 464 -64 3 -119 0 -169
-11 -41 -9 -76 -14 -78 -12 -2 2 14 26 36 53 108 137 257 203 456 203 114 0
188 -10 326 -45 53 -13 102 -25 109 -27 8 -2 26 39 50 109 33 98 36 112 21
116 -334 99 -433 117 -615 116 -85 0 -161 -7 -216 -18z m88 -751 c98 -44 151
-108 173 -209 21 -98 -18 -225 -93 -307 -57 -62 -108 -86 -193 -92 -129 -8
-230 50 -286 163 -29 60 -31 71 -27 142 14 245 222 393 426 303z"/>
<path d="M12194 13902 l-229 -398 -427 -109 c-236 -60 -428 -112 -428 -117 0
-5 128 -163 285 -353 246 -296 285 -348 285 -377 0 -18 -12 -225 -27 -460 -15
-235 -24 -430 -20 -434 3 -4 184 73 402 171 l395 178 395 -178 c218 -98 398
-175 402 -171 4 3 -4 210 -17 460 l-24 453 287 351 c158 193 287 355 287 360
0 5 -192 57 -428 117 l-427 109 -234 398 c-128 219 -237 398 -241 398 -4 0
-110 -179 -236 -398z m251 125 c-14 -23 -60 -101 -101 -174 -42 -73 -81 -136
-88 -142 -8 -7 -20 -3 -38 12 l-27 22 55 100 c30 55 74 134 96 175 22 41 42
78 45 82 2 5 22 -1 44 -12 l40 -21 -26 -42z m-245 -367 l28 -20 -45 -80 c-28
-50 -49 -77 -57 -73 -6 4 -21 13 -33 21 l-23 14 37 67 c38 70 52 91 60 91 3 0
18 -9 33 -20z m-272 -255 c19 -42 14 -54 -25 -65 -21 -5 -59 -16 -84 -24 -46
-14 -47 -14 -58 10 -20 45 -14 62 27 73 34 10 109 28 123 30 3 1 11 -10 17
-24z m-230 -76 l3 -36 -200 -50 -201 -51 -10 36 c-10 39 -5 48 40 58 14 3 61
15 105 26 44 11 98 24 120 29 22 4 54 13 70 18 53 17 70 10 73 -30z"/>
<path d="M14909 13487 l-446 -110 -81 -126 c-62 -96 -78 -129 -69 -137 7 -6
126 -84 265 -173 138 -90 252 -167 252 -172 0 -5 -41 -72 -90 -149 -50 -76
-93 -145 -96 -153 -3 -9 37 -41 122 -96 70 -45 128 -80 129 -79 1 2 46 72 100
156 68 106 103 151 112 147 8 -3 57 -33 109 -66 52 -34 96 -60 98 -58 14 15
126 193 126 199 0 5 -47 38 -105 75 l-104 67 23 36 c13 21 103 160 200 311 97
150 176 274 174 276 -19 17 -257 165 -264 164 -5 -1 -210 -51 -455 -112z m180
-328 c-62 -96 -114 -175 -115 -177 -3 -5 -319 202 -324 213 -4 8 539 147 548
140 2 -2 -48 -81 -109 -176z"/>
<path d="M9224 13537 c-17 -12 -58 -56 -91 -97 -60 -75 -199 -214 -261 -261
l-34 -26 49 -76 c26 -42 51 -77 55 -77 4 0 56 31 115 69 81 52 111 66 119 58
15 -15 406 -632 428 -674 32 -63 18 -84 -112 -167 l-73 -46 37 -57 c20 -32 42
-66 48 -75 6 -10 14 -18 18 -18 5 0 688 430 705 444 5 4 -99 156 -105 152
-197 -119 -195 -118 -231 -88 -11 9 -155 228 -319 486 -164 259 -303 471 -308
472 -5 2 -23 -7 -40 -19z"/>
<path d="M12256 11648 c-3 -84 -22 -1006 -41 -2048 -19 -1042 -37 -1964 -40
-2047 l-5 -153 260 0 260 0 -5 128 c-3 70 -24 1054 -46 2187 -22 1133 -42
2066 -44 2073 -3 9 -46 12 -169 12 l-164 0 -6 -152z m114 -235 c0 -54 -3 -128
-7 -165 -6 -67 -6 -68 -36 -68 l-30 0 7 92 c3 50 6 124 6 165 l0 73 30 0 30 0
0 -97z m-10 -357 c0 -29 -3 -74 -6 -100 -6 -40 -10 -46 -30 -46 -24 0 -24 2
-24 100 l0 100 30 0 c30 0 30 -1 30 -54z"/>
<path d="M4738 10113 l-1018 -1008 0 -464 0 -463 621 613 c341 338 625 616
630 617 5 2 9 -253 9 -620 l0 -623 645 645 645 645 0 -638 0 -637 385 0 385 0
0 1472 0 1473 -187 -186 c-104 -102 -390 -385 -638 -629 l-450 -443 -5 627 -5
627 -1017 -1008z"/>
<path d="M10733 10520 c-273 -29 -519 -136 -741 -322 -207 -174 -343 -394
-395 -638 -26 -124 -28 -337 -3 -464 87 -449 421 -801 856 -902 65 -15 146
-18 593 -21 l517 -4 0 730 0 731 -285 0 -285 0 0 -435 0 -435 -168 0 c-250 0
-329 27 -457 155 -314 313 -192 806 243 974 l67 26 445 3 445 3 98 97 c54 53
189 190 299 305 l200 207 -678 -1 c-374 -1 -712 -5 -751 -9z"/>
<path d="M14075 10519 c-464 -49 -897 -388 -1040 -813 -53 -159 -74 -341 -56
-501 33 -294 139 -516 346 -720 116 -115 232 -192 363 -241 145 -54 215 -65
465 -71 l227 -6 0 297 0 296 -163 0 c-244 0 -325 28 -452 155 -286 286 -209
749 155 935 115 59 140 63 381 68 l226 4 304 304 304 304 -490 -1 c-270 -1
-526 -5 -570 -10z"/>
<path d="M15531 9734 l-791 -795 0 -382 1 -382 742 748 c408 411 745 748 750
747 4 0 7 -137 7 -305 l0 -305 -218 0 -217 0 -290 -290 -290 -290 508 0 507 0
0 -155 0 -155 320 0 320 0 0 1180 0 1180 -279 0 -279 0 -791 -796z"/>
<path d="M17393 10208 l-323 -323 0 -853 0 -852 745 0 745 0 0 290 0 290 -420
0 -420 0 -2 885 -3 885 -322 -322z"/>
<path d="M9858 6960 l-848 -842 0 -385 0 -385 523 515 522 515 3 -515 2 -514
538 530 537 531 3 -530 2 -530 320 0 320 0 0 1227 0 1227 -52 -49 c-29 -28
-268 -264 -533 -525 l-480 -475 -5 524 -5 524 -847 -843z"/>
<path d="M12150 6332 c0 -771 3 -1011 12 -1020 9 -9 82 -12 268 -12 186 0 259
3 268 12 9 9 12 249 12 1020 l0 1008 -280 0 -280 0 0 -1008z"/>
<path d="M14270 6963 l-1 -358 -348 355 -349 355 -271 -270 -271 -270 0 -712
0 -713 270 0 270 0 0 632 0 633 493 -490 c270 -270 556 -553 635 -630 l142
-140 0 983 0 982 -285 0 -285 0 0 -357z"/>
<path d="M15258 7043 l-268 -268 0 -718 0 -717 265 0 265 0 0 730 0 730 168 0
c247 0 328 -27 453 -150 103 -102 149 -209 149 -351 0 -136 -47 -246 -147
-340 -114 -108 -175 -129 -375 -129 l-138 0 0 -245 0 -245 153 0 c360 0 554
73 757 286 126 132 208 285 246 459 26 121 24 334 -4 449 -91 367 -404 662
-801 752 -40 9 -143 17 -261 20 l-195 6 -267 -269z"/>
<path d="M17493 7299 c-223 -37 -443 -233 -498 -444 -21 -83 -19 -215 5 -309
57 -222 237 -405 456 -461 32 -8 105 -19 161 -23 67 -6 111 -15 128 -26 56
-37 56 -117 0 -173 l-33 -33 -381 0 -381 0 0 -245 0 -245 413 0 c463 0 500 4
627 66 86 43 195 146 248 235 58 98 75 162 80 290 7 197 -34 305 -163 434
-124 125 -232 169 -453 184 -65 5 -134 15 -154 24 -92 39 -106 172 -23 212 28
13 90 15 407 15 l373 0 255 255 255 255 -635 -1 c-349 -1 -658 -5 -687 -10z"/>
<path d="M9375 4603 c-76 -197 -145 -373 -152 -390 l-13 -33 83 0 82 0 31 88
31 87 156 3 155 2 34 -87 34 -88 82 -3 c45 -2 82 1 82 5 0 5 -69 180 -153 388
l-154 380 -79 3 -79 3 -140 -358z m273 20 l50 -133 -104 0 c-57 0 -104 1 -104
3 0 6 92 252 97 260 7 12 7 13 61 -130z"/>
<path d="M10060 4570 l0 -390 70 0 70 0 0 42 c0 42 0 42 16 19 23 -32 110 -71
160 -71 58 0 138 43 173 93 42 63 55 112 55 212 -1 71 -6 101 -24 143 -38 87
-120 142 -211 142 -37 0 -113 -31 -141 -57 -17 -15 -18 -9 -18 120 l0 137 -75
0 -75 0 0 -390z m344 49 c79 -69 71 -272 -13 -322 -61 -36 -128 -11 -162 61
-29 59 -25 196 7 239 45 61 114 70 168 22z"/>
<path d="M13545 4603 c-76 -197 -145 -373 -152 -390 l-13 -33 83 0 82 0 31 88
31 87 156 3 155 2 34 -87 34 -88 82 -3 c45 -2 82 1 82 5 0 5 -69 180 -153 388
l-154 380 -79 3 -79 3 -140 -358z m273 20 l50 -133 -104 0 c-57 0 -104 1 -104
3 0 6 92 252 97 260 7 12 7 13 61 -130z"/>
<path d="M15810 4825 l0 -135 -43 31 c-63 44 -136 50 -209 16 -97 -44 -138
-125 -138 -273 0 -109 25 -178 84 -232 85 -78 187 -82 279 -10 l37 29 0 -36 0
-35 70 0 70 0 0 390 0 390 -75 0 -75 0 0 -135z m-55 -197 c40 -31 55 -77 55
-164 0 -89 -19 -137 -64 -165 -61 -37 -127 -15 -162 53 -23 44 -23 182 -1 225
38 72 116 95 172 51z"/>
<path d="M10854 4751 c-54 -14 -100 -49 -125 -95 -13 -25 -21 -48 -18 -51 4
-3 33 -10 65 -15 44 -7 60 -7 63 2 2 7 14 22 27 35 34 34 115 33 149 -2 14
-13 25 -33 25 -44 0 -22 -19 -30 -155 -61 -49 -12 -106 -32 -126 -45 -92 -60
-92 -209 0 -272 67 -45 179 -40 248 13 17 13 34 24 36 24 3 0 10 -13 16 -30
10 -30 11 -30 80 -30 39 0 71 3 71 6 0 3 -5 15 -12 27 -8 14 -14 95 -18 234
-6 237 -8 247 -84 286 -41 22 -187 32 -242 18z m186 -336 c0 -79 -49 -135
-118 -135 -67 0 -107 74 -62 115 15 14 130 50 173 54 4 1 7 -15 7 -34z"/>
<path d="M11477 4744 c-63 -20 -129 -85 -150 -149 -11 -30 -17 -80 -17 -130 0
-106 21 -166 76 -221 103 -103 303 -96 393 13 29 35 58 99 49 108 -7 7 -131
24 -139 19 -5 -3 -9 -14 -9 -25 0 -11 -13 -34 -29 -50 -55 -55 -145 -31 -177
47 -19 46 -18 187 1 228 19 39 62 66 107 66 42 0 71 -20 88 -60 11 -26 17 -30
39 -26 14 3 45 8 69 11 47 7 49 12 26 58 -40 80 -103 117 -208 123 -47 3 -87
-1 -119 -12z"/>
<path d="M12697 4746 c-82 -23 -127 -81 -127 -162 0 -95 47 -133 225 -180 55
-14 106 -31 113 -36 39 -33 -15 -88 -87 -88 -60 0 -92 17 -111 58 -14 30 -17
32 -55 27 -122 -18 -120 -17 -77 -86 19 -29 47 -54 83 -74 50 -28 61 -30 154
-30 78 0 108 5 135 19 85 45 129 119 115 194 -15 78 -59 108 -225 151 -62 16
-119 36 -128 44 -33 34 13 67 95 67 39 0 50 -5 78 -35 l33 -34 58 9 c33 6 62
10 67 10 10 0 -20 70 -41 93 -51 57 -201 83 -305 53z"/>
<path d="M14387 4744 c-63 -20 -129 -85 -150 -149 -11 -30 -17 -80 -17 -130 0
-106 21 -166 76 -221 103 -103 303 -96 393 13 29 35 58 99 49 108 -7 7 -131
24 -139 19 -5 -3 -9 -14 -9 -25 0 -11 -13 -34 -29 -50 -55 -55 -145 -31 -177
47 -19 46 -18 187 1 228 19 39 62 66 107 66 42 0 71 -20 88 -60 11 -26 17 -30
39 -26 14 3 45 8 69 11 47 7 49 12 26 58 -40 80 -103 117 -208 123 -47 3 -87
-1 -119 -12z"/>
<path d="M14974 4751 c-54 -14 -100 -49 -125 -95 -13 -25 -21 -48 -18 -51 4
-3 33 -10 65 -15 44 -7 60 -7 63 2 2 7 14 22 27 35 34 34 115 33 149 -2 14
-13 25 -33 25 -44 0 -22 -19 -30 -155 -61 -49 -12 -106 -32 -126 -45 -92 -60
-92 -209 0 -272 67 -45 179 -40 248 13 17 13 34 24 36 24 3 0 10 -13 16 -30
10 -30 11 -30 80 -30 39 0 71 3 71 6 0 3 -5 15 -12 27 -8 14 -14 95 -18 234
-6 237 -8 247 -84 286 -41 22 -187 32 -242 18z m186 -336 c0 -79 -49 -135
-118 -135 -67 0 -107 74 -62 115 15 14 130 50 173 54 4 1 7 -15 7 -34z"/>
<path d="M16236 4745 c-56 -20 -107 -65 -136 -121 -22 -44 -25 -60 -25 -164 0
-93 4 -122 19 -150 44 -83 110 -127 205 -136 117 -13 214 34 262 127 l19 38
-48 6 c-26 3 -59 9 -74 11 -20 4 -28 1 -33 -15 -9 -30 -53 -61 -87 -61 -63 0
-118 53 -118 115 l0 25 186 0 186 0 -6 58 c-4 31 -14 81 -22 110 -36 129 -194
205 -328 157z m145 -111 c31 -15 59 -66 59 -104 0 -19 -6 -20 -110 -20 l-110
0 0 28 c0 15 9 42 20 60 31 51 85 65 141 36z"/>
<path d="M16940 4744 c-19 -8 -49 -26 -67 -40 l-33 -25 0 35 0 36 -65 0 -65 0
0 -285 0 -285 70 0 70 0 0 143 c0 201 11 265 50 300 33 30 84 36 114 14 27
-20 35 -84 36 -279 l0 -178 70 0 70 0 0 160 c0 87 5 182 11 209 19 90 101 130
154 76 25 -24 25 -24 25 -235 l0 -210 76 0 76 0 -4 233 c-3 211 -5 235 -23
265 -56 92 -202 108 -291 30 l-35 -31 -33 32 c-52 51 -137 65 -206 35z"/>
<path d="M11932 4533 c4 -194 7 -223 26 -265 13 -30 33 -55 53 -67 76 -46 187
-35 258 26 l41 35 0 -41 0 -41 65 0 65 0 0 285 0 285 -69 0 -68 0 -5 -193 c-3
-123 -9 -201 -17 -215 -28 -53 -114 -78 -158 -47 -35 24 -43 77 -43 273 l0
182 -76 0 -77 0 5 -217z"/>
<path d="M17612 4738 c3 -7 51 -136 108 -287 l103 -274 -22 -44 c-23 -48 -50
-63 -112 -63 -39 0 -39 0 -39 -39 0 -56 19 -71 88 -70 81 0 140 26 174 74 20
30 268 686 268 711 0 2 -34 4 -75 4 l-74 0 -63 -195 c-35 -107 -65 -195 -68
-195 -3 0 -35 88 -70 195 l-64 195 -79 0 c-59 0 -78 -3 -75 -12z"/>
<path d="M18200 4255 l0 -75 75 0 75 0 0 75 0 75 -75 0 -75 0 0 -75z"/>
<path d="M18500 4255 l0 -75 75 0 75 0 0 75 0 75 -75 0 -75 0 0 -75z"/>
<path d="M18800 4255 l0 -75 75 0 75 0 0 75 0 75 -75 0 -75 0 0 -75z"/>
</g>
</svg>
